# xmcd
#
# Track frame offsets:
# 150
# 23590
# 39075
# 53205
# 70710
# 88479
# 103124
# 114997
# 130022
# 145082
# 157714
# 173530
# 188924
# 203942
# 220883
#
# Disc length: 3259 seconds
#
#
# Revision: 4
# Processed by: cddbd v1.5.2PL0 Copyright (c) Steve Scherf et al.
# Submitted via: FreeRIP 2.945 
#
DISCID=c20cb90f
DTITLE=Bruno and Marrone - Ao Vivo em Goiânia
DYEAR=2006
DGENRE=Sertanejo
TTITLE0=Por te Amar Demais
TTITLE1=Vê se Toma Juízo
TTITLE2=Amor de Ping Pong (Part. Edson e Hudson)
TTITLE3=Por um Gole a Mais
TTITLE4=Marianne
TTITLE5=Doce Desejo (Part. Claudia Leite)
TTITLE6=Me Namora
TTITLE7=Que Pescar que Nada
TTITLE8=Não Posso ter Medo de Amar
TTITLE9=Desiguais ( Part. Ana Paula )
TTITLE10=Tá Pegando ( Part. Grupo Tradição )
TTITLE11=O Sonho não Acabou
TTITLE12=Por que Choras? ( Part. Banda Calypso )
TTITLE13=Essa História eu Conheço
TTITLE14=Choram as Rosas
EXTD=Letras de Música Fornecida Por: Equipe\n                                                               Ks
EXTT0=
EXTT1=
EXTT2=
EXTT3=
EXTT4=
EXTT5=
EXTT6=
EXTT7=
EXTT8=
EXTT9=
EXTT10=
EXTT11=
EXTT12=
EXTT13=
EXTT14=
PLAYORDER=
